<svg xmlns="http://www.w3.org/2000/svg" viewBox="0 0 800 800" role="img" aria-label="Original synthetic abstract artwork 07" data-seed="synthetic-artwork-07">
  <defs>
    <linearGradient id="gradient-synthetic-artwork-07" x1="0" y1="0" x2="1" y2="1">
      <stop offset="0" stop-color="hsl(314,70%,23%)"/>
      <stop offset="0.5" stop-color="hsl(65,73%,46%)"/>
      <stop offset="1" stop-color="hsl(162,70%,74%)"/>
    </linearGradient>
    <filter id="grain-synthetic-artwork-07"><feTurbulence type="fractalNoise" baseFrequency="0.72" numOctaves="2" stitchTiles="stitch"/><feColorMatrix type="saturate" values="0.2"/><feComponentTransfer><feFuncA type="table" tableValues="0 0.14"/></feComponentTransfer></filter>
  </defs>
  <rect width="800" height="800" fill="url(#gradient-synthetic-artwork-07)"/>
  <circle cx="186" cy="261" r="123" fill="hsla(65,90%,85%,0.20)"/>
  <polygon points="348,288 591,216 114,564 741,618 49,558 558,438 480,276 213,651 495,558" fill="hsla(162,78%,30%,0.38)" stroke="hsla(314,90%,92%,0.72)" stroke-width="8"/>
  <rect x="483" y="180" width="176" height="88" rx="12" transform="rotate(37 571 224)" fill="hsla(162,78%,68%,0.34)"/><rect x="237" y="145" width="77" height="62" rx="15" transform="rotate(13 275 176)" fill="hsla(179,78%,68%,0.34)"/><rect x="598" y="515" width="98" height="83" rx="18" transform="rotate(31 647 556)" fill="hsla(196,78%,68%,0.34)"/><rect x="413" y="385" width="127" height="67" rx="21" transform="rotate(11 476 418)" fill="hsla(213,78%,68%,0.34)"/><rect x="175" y="530" width="143" height="108" rx="24" transform="rotate(41 246 584)" fill="hsla(230,78%,68%,0.34)"/>
  <path d="M70 241 C220 175, 450 626, 730 282" fill="none" stroke="hsla(314,98%,95%,0.68)" stroke-width="16"/>
  <rect width="800" height="800" filter="url(#grain-synthetic-artwork-07)" opacity="0.7"/>
</svg>
