<svg xmlns="http://www.w3.org/2000/svg" viewBox="0 0 800 1000">
<title>synthetic-track-02-075 — synthetic architectural grid study 248</title>
<rect width="800" height="1000" fill="#F3EFE6"/>
<rect x="34" y="34" width="732" height="932" rx="4" fill="none" stroke="#17324D" stroke-width="3" opacity=".82"/>
<g stroke="#17324D" stroke-width="2" opacity=".23"><line x1="80" y1="74" x2="80" y2="924"/><line x1="156" y1="74" x2="156" y2="924"/><line x1="232" y1="74" x2="232" y2="924"/><line x1="308" y1="74" x2="308" y2="924"/><line x1="384" y1="74" x2="384" y2="924"/><line x1="460" y1="74" x2="460" y2="924"/><line x1="536" y1="74" x2="536" y2="924"/><line x1="612" y1="74" x2="612" y2="924"/><line x1="688" y1="74" x2="688" y2="924"/><line x1="54" y1="109" x2="746" y2="109"/><line x1="54" y1="188" x2="746" y2="188"/><line x1="54" y1="267" x2="746" y2="267"/><line x1="54" y1="346" x2="746" y2="346"/><line x1="54" y1="425" x2="746" y2="425"/><line x1="54" y1="504" x2="746" y2="504"/><line x1="54" y1="583" x2="746" y2="583"/><line x1="54" y1="662" x2="746" y2="662"/><line x1="54" y1="741" x2="746" y2="741"/><line x1="54" y1="820" x2="746" y2="820"/><line x1="54" y1="899" x2="746" y2="899"/></g>
<g fill="none" stroke="#2D6A73" stroke-width="5" opacity=".65"><path d="M54 206 L746 705"/><path d="M54 324 L746 870"/></g>
<g><path d="M72 850 V517 h95 v295 l-24 38 Z" fill="#245B66" opacity=".58"/><path d="M262 850 V535 h86 v277 l-22 38 Z" fill="#2D6A73" opacity=".65"/><path d="M452 850 V550 h89 v262 l-23 38 Z" fill="#245B66" opacity=".72"/><path d="M642 850 V475 h83 v337 l-21 38 Z" fill="#2D6A73" opacity=".79"/></g>
<g><rect x="82" y="541" width="7" height="10" fill="#C98B8A" opacity=".45"/><rect x="82" y="677" width="7" height="10" fill="#C98B8A" opacity=".54"/><rect x="120" y="541" width="7" height="10" fill="#C98B8A" opacity=".54"/><rect x="120" y="677" width="7" height="10" fill="#C98B8A" opacity=".63"/><rect x="272" y="559" width="7" height="10" fill="#C98B8A" opacity=".54"/><rect x="272" y="644" width="7" height="10" fill="#C98B8A" opacity=".63"/><rect x="272" y="729" width="7" height="10" fill="#C98B8A" opacity=".72"/><rect x="306" y="559" width="7" height="10" fill="#C98B8A" opacity=".63"/><rect x="306" y="644" width="7" height="10" fill="#C98B8A" opacity=".72"/><rect x="306" y="729" width="7" height="10" fill="#C98B8A" opacity=".81"/><rect x="462" y="574" width="7" height="10" fill="#C98B8A" opacity=".63"/><rect x="462" y="634" width="7" height="10" fill="#C98B8A" opacity=".72"/><rect x="462" y="694" width="7" height="10" fill="#C98B8A" opacity=".81"/><rect x="462" y="754" width="7" height="10" fill="#C98B8A" opacity=".45"/><rect x="497" y="574" width="7" height="10" fill="#C98B8A" opacity=".72"/><rect x="497" y="634" width="7" height="10" fill="#C98B8A" opacity=".81"/><rect x="497" y="694" width="7" height="10" fill="#C98B8A" opacity=".45"/><rect x="497" y="754" width="7" height="10" fill="#C98B8A" opacity=".54"/><rect x="652" y="499" width="7" height="10" fill="#C98B8A" opacity=".72"/><rect x="652" y="562" width="7" height="10" fill="#C98B8A" opacity=".81"/><rect x="652" y="625" width="7" height="10" fill="#C98B8A" opacity=".45"/><rect x="652" y="688" width="7" height="10" fill="#C98B8A" opacity=".54"/><rect x="652" y="751" width="7" height="10" fill="#C98B8A" opacity=".63"/><rect x="673" y="499" width="7" height="10" fill="#C98B8A" opacity=".81"/><rect x="673" y="562" width="7" height="10" fill="#C98B8A" opacity=".45"/><rect x="673" y="625" width="7" height="10" fill="#C98B8A" opacity=".54"/><rect x="673" y="688" width="7" height="10" fill="#C98B8A" opacity=".63"/><rect x="673" y="751" width="7" height="10" fill="#C98B8A" opacity=".72"/><rect x="694" y="499" width="7" height="10" fill="#C98B8A" opacity=".45"/><rect x="694" y="562" width="7" height="10" fill="#C98B8A" opacity=".54"/><rect x="694" y="625" width="7" height="10" fill="#C98B8A" opacity=".63"/><rect x="694" y="688" width="7" height="10" fill="#C98B8A" opacity=".72"/><rect x="694" y="751" width="7" height="10" fill="#C98B8A" opacity=".81"/></g>
<path d="M70 850 H730 M92 882 H708 M382 850 V478 H583 V850" fill="none" stroke="#17324D" stroke-width="6" opacity=".74"/>
<polygon points="400,850 565,850 541,683 424,683" fill="none" stroke="#C98B8A" stroke-width="7" opacity=".9"/>
<g stroke="#2D6A73" stroke-width="3" opacity=".8"><path d="M58 62 h34 M75 45 v34 M708 938 h34 M725 921 v34"/></g>
<text x="748" y="950" text-anchor="end" font-family="sans-serif" font-size="13" letter-spacing="3" fill="#17324D" opacity=".48">SYNTHETIC</text>
<text x="55" y="949" font-family="sans-serif" font-size="11" letter-spacing="2" fill="#17324D" opacity=".44">GRID / LINE / FORM · 248</text>
</svg>
