<svg xmlns="http://www.w3.org/2000/svg" width="800" height="1000" viewBox="0 0 800 1000" role="img" aria-label="Synthetic abstract polygon collage synthetic-track-02-090" data-record-id="synthetic-track-02-090" data-record-index="263">
<title>synthetic-track-02-090 — synthetic polygon collage</title>
<rect width="800" height="1000" fill="#eeeff3"/>
<rect x="28" y="28" width="744" height="944" fill="none" stroke="#473e23" stroke-opacity=".16" stroke-width="3"/>
<polygon points="571.5,783.0 145.8,810.8 445.5,499.8 602.6,589.6" fill="#5a6cd1" fill-opacity="0.46" stroke="#714372" stroke-width="6" stroke-opacity=".40"/>
<polygon points="475.9,662.0 397.2,635.1 325.4,736.8 164.6,476.6 253.6,293.3 381.5,224.5" fill="#9b4bea" fill-opacity="0.84" stroke="#7e3a55" stroke-width="7" stroke-opacity=".40"/>
<polygon points="527.0,800.0 141.9,909.0 131.0,925.5" fill="#d96cde" fill-opacity="0.48" stroke="#552468" stroke-width="3" stroke-opacity=".40"/>
<polygon points="463.1,838.4 446.2,875.3 437.9,833.3 661.0,516.8" fill="#ac332a" fill-opacity="0.52" stroke="#2c6275" stroke-width="4" stroke-opacity=".40"/>
<polygon points="116.0,481.4 80.8,445.0 270.7,257.0 271.0,287.4" fill="#bc8235" fill-opacity="0.63" stroke="#4b2066" stroke-width="3" stroke-opacity=".40"/>
<polygon points="512.2,542.1 494.8,556.3 327.6,513.8 394.9,432.6" fill="#d6f360" fill-opacity="0.73" stroke="#274384" stroke-width="4" stroke-opacity=".40"/>
<polygon points="569.8,766.7 353.8,785.9 385.8,566.3 596.0,641.0" fill="#6ae250" fill-opacity="0.84" stroke="#9c7031" stroke-width="9" stroke-opacity=".40"/>
<g fill="none" stroke-linejoin="round">
<path d="M-28,391 C125,314 434,387 681,405" fill="none" stroke="#d96cde" stroke-width="25" stroke-opacity="0.49" stroke-linecap="round"/>
<path d="M6,424 C426,549 648,340 789,534" fill="none" stroke="#bc8235" stroke-width="42" stroke-opacity="0.75" stroke-linecap="round"/>
<path d="M12,428 C426,420 513,814 806,569" fill="none" stroke="#6ae250" stroke-width="29" stroke-opacity="0.41" stroke-linecap="round"/>
<path d="M-16,807 C438,935 527,779 680,538" fill="none" stroke="#9b4bea" stroke-width="16" stroke-opacity="0.73" stroke-linecap="round"/>
<path d="M-4,515 C137,376 489,503 663,637" fill="none" stroke="#473e23" stroke-width="4" stroke-opacity="0.59" stroke-linecap="round"/>
<path d="M117,462 C300,723 537,658 837,741" fill="none" stroke="#473e23" stroke-width="3" stroke-opacity="0.57" stroke-linecap="round"/>
<path d="M14,691 C448,713 487,811 669,670" fill="none" stroke="#473e23" stroke-width="8" stroke-opacity="0.52" stroke-linecap="round"/>
</g>
<text x="58" y="958" font-family="sans-serif" font-size="18" letter-spacing="5" fill="#473e23" fill-opacity=".34">SYNTHETIC</text>
<circle cx="731" cy="118" r="16" fill="#6ae250" fill-opacity=".58"/>
</svg>
