<svg xmlns="http://www.w3.org/2000/svg" viewBox="0 0 800 1000" role="img" aria-label="Synthetic flowing ribbon placeholder for synthetic-track-01-077" data-seed="synthetic-track-01-077" data-index="76">
<rect width="800" height="1000" fill="#eaeef6"/>
<path d="M -70 266 C 216 125 343 407 405 266 S 638 125 870 278 L 870 329 C 638 497 343 192 405 317 S 216 437 -70 301 Z" fill="#c322ce" opacity=".58"/>
<path d="M -70 610 C 216 732 343 488 410 658 S 638 732 870 561 L 870 610 C 638 537 343 781 410 707 S 216 537 -70 638 Z" fill="#c8c528" opacity=".52"/>
<path d="M -50 796 C 216 691 343 901 415 808 S 638 691 850 835" fill="none" stroke="#1dbf8e" stroke-width="17" stroke-linecap="round" opacity=".72"/>
<path d="M -40 439 C 216 532 343 250 420 407 S 638 532 850 375" fill="none" stroke="#e2db79" stroke-width="49" stroke-linecap="round" opacity=".78"/>
<path d="M 532 228 A 157 157 0 0 1 689 328" fill="none" stroke="#153a5b" stroke-width="51" stroke-linecap="round" opacity=".36"/>
<circle cx="532" cy="228" r="25" fill="#153a5b" opacity=".18"/>
<text x="137" y="936" fill="#153a5b" font-family="sans-serif" font-size="18" letter-spacing="6" opacity=".28">SYNTHETIC</text>
</svg>
