<svg xmlns="http://www.w3.org/2000/svg" viewBox="0 0 800 1000" role="img" aria-label="Ongyeoldam Riva | 저녁편지 층위회화" data-record-id="synthetic-track-02-007" data-seed="5807" data-index="180">
<title>저녁편지의 층 — 보내지 않은 밤의 결 · Evening Letter Layers / Grain of an Unsent Night</title>
<rect x="0" y="0" width="800" height="1000" fill="#2F3E46"/>
<path d="M0 103 C158 76 281 120 392 177 C500 232 651 218 800 151V299 C655 349 516 345 393 289 C267 231 146 236 0 272Z" fill="#354F52"/>
<path d="M0 463 C152 415 276 454 397 518 C523 585 653 573 800 503V650 C645 704 508 692 386 631 C268 573 135 583 0 626Z" fill="#52796F"/>
<polygon points="279,0 466,0 518,1000 337,1000" fill="#84A98C"/>
<polygon points="352,0 430,0 466,1000 392,1000" fill="#CAD2C5"/>
<line x1="372" y1="286" x2="443" y2="286" stroke="#2F3E46" stroke-width="5"/>
<line x1="379" y1="341" x2="449" y2="341" stroke="#2F3E46" stroke-width="4"/>
<line x1="386" y1="396" x2="455" y2="396" stroke="#2F3E46" stroke-width="3"/>
<circle cx="407" cy="546" r="29" fill="#DDA15E"/>
<circle cx="407" cy="546" r="11" fill="#2F3E46"/>
<text x="22" y="978" fill="#CAD2C5" font-family="sans-serif" font-size="8" letter-spacing="2">SYNTHETIC</text>
</svg>
