<svg xmlns="http://www.w3.org/2000/svg" viewBox="0 0 800 1000" data-record-id="synthetic-track-02-124" data-seed="7008"><title>숨결점의 모임 — 고른 점 사이의 여백 · Breathpoint Gathering / Margin Between Even Points</title><rect x="0" y="0" width="800" height="1000" fill="#F4F1DE"/><rect x="40" y="40" width="720" height="920" fill="none" stroke="#3D405B" stroke-width="4" stroke-opacity="0.35"/><circle cx="203" cy="315" r="5" fill="#3D405B"/><circle cx="166" cy="346" r="9" fill="#5F797B"/><circle cx="248" cy="207" r="13" fill="#81B29A"/><circle cx="196" cy="506" r="17" fill="#F2CC8F"/><circle cx="193" cy="283" r="5" fill="#E07A5F"/><circle cx="256" cy="372" r="9" fill="#3D405B"/><circle cx="96" cy="298" r="13" fill="#5F797B"/><circle cx="207" cy="312" r="17" fill="#81B29A"/><circle cx="174" cy="370" r="5" fill="#F2CC8F"/><circle cx="217" cy="182" r="9" fill="#E07A5F"/><circle cx="248" cy="501" r="13" fill="#3D405B"/><circle cx="182" cy="288" r="17" fill="#5F797B"/><circle cx="271" cy="337" r="5" fill="#81B29A"/><circle cx="96" cy="365" r="9" fill="#F2CC8F"/><circle cx="209" cy="306" r="13" fill="#E07A5F"/><circle cx="190" cy="389" r="17" fill="#3D405B"/><circle cx="181" cy="178" r="5" fill="#5F797B"/><circle cx="295" cy="465" r="9" fill="#81B29A"/><circle cx="173" cy="300" r="13" fill="#F2CC8F"/><circle cx="203" cy="315" r="47" fill="#5F797B" stroke="#3D405B" stroke-width="7"/><circle cx="610" cy="682" r="5" fill="#81B29A"/><circle cx="565" cy="691" r="9" fill="#F2CC8F"/><circle cx="682" cy="614" r="13" fill="#E07A5F"/><circle cx="556" cy="835" r="17" fill="#3D405B"/><circle cx="607" cy="652" r="5" fill="#5F797B"/><circle cx="651" cy="752" r="9" fill="#81B29A"/><circle cx="505" cy="620" r="13" fill="#F2CC8F"/><circle cx="615" cy="682" r="17" fill="#E07A5F"/><circle cx="567" cy="714" r="5" fill="#3D405B"/><circle cx="657" cy="580" r="9" fill="#5F797B"/><circle cx="610" cy="854" r="13" fill="#81B29A"/><circle cx="595" cy="650" r="17" fill="#F2CC8F"/><circle cx="674" cy="731" r="5" fill="#E07A5F"/><circle cx="489" cy="674" r="9" fill="#3D405B"/><circle cx="619" cy="677" r="13" fill="#5F797B"/><circle cx="610" cy="682" r="66" fill="#81B29A" stroke="#3D405B" stroke-width="7"/><path d="M90 828 C277 667 387 445 706 128" fill="none" stroke="#F2CC8F" stroke-width="5" stroke-dasharray="2 24" stroke-linecap="round"/><text x="728" y="962" fill="#5F797B" font-family="sans-serif" font-size="9" letter-spacing="1" opacity="0.45">SYNTHETIC</text></svg>