<svg xmlns="http://www.w3.org/2000/svg" viewBox="0 0 800 1000" data-record-id="synthetic-track-02-051" data-record-index="224" data-seed="6207">
<title>눈금 없는 지도 — 경로가 녹은 자리 · Unscaled Map / Place Where the Route Melted</title>
<rect x="0" y="0" width="800" height="1000" fill="#202C39"/>
<path d="M54 120L210 72L294 184L236 315L92 276Z" fill="#5C7C89" stroke="#364F6B" stroke-width="5" stroke-linecap="round" stroke-linejoin="round"/>
<path d="M322 78L491 110L469 244L309 274L280 177Z" fill="#A6B8A1" stroke="#364F6B" stroke-width="5" stroke-linecap="round" stroke-linejoin="round"/>
<path d="M535 128L736 94L769 256L596 307L488 234Z" fill="#E6D5B8" stroke="#364F6B" stroke-width="5" stroke-linecap="round" stroke-linejoin="round"/>
<path d="M86 365L238 328L316 445L240 566L82 532Z" fill="#C66B3D" stroke="#364F6B" stroke-width="5" stroke-linecap="round" stroke-linejoin="round"/>
<path d="M352 318L501 278L581 396L520 541L337 489Z" fill="#5C7C89" stroke="#364F6B" stroke-width="5" stroke-linecap="round" stroke-linejoin="round"/>
<path d="M608 350L766 318L782 529L601 558L552 438Z" fill="#A6B8A1" stroke="#364F6B" stroke-width="5" stroke-linecap="round" stroke-linejoin="round"/>
<path d="M164 644L317 569L402 688L350 839L192 827Z" fill="#E6D5B8" stroke="#364F6B" stroke-width="5" stroke-linecap="round" stroke-linejoin="round"/>
<path d="M447 609L582 565L697 670L638 828L467 797Z" fill="#C66B3D" stroke="#364F6B" stroke-width="5" stroke-linecap="round" stroke-linejoin="round"/>
<path d="M90 135C160 184 188 110 257 174" fill="none" stroke="#E6D5B8" stroke-width="3" stroke-linecap="round" stroke-linejoin="round" opacity="0.7"/>
<path d="M188 218C248 266 288 190 346 260" fill="none" stroke="#E6D5B8" stroke-width="3" stroke-linecap="round" stroke-linejoin="round" opacity="0.7"/>
<path d="M286 301C336 348 388 270 435 346" fill="none" stroke="#E6D5B8" stroke-width="3" stroke-linecap="round" stroke-linejoin="round" opacity="0.7"/>
<path d="M384 384C424 430 488 350 524 432" fill="none" stroke="#E6D5B8" stroke-width="3" stroke-linecap="round" stroke-linejoin="round" opacity="0.7"/>
<path d="M482 467C512 512 588 430 613 518" fill="none" stroke="#E6D5B8" stroke-width="3" stroke-linecap="round" stroke-linejoin="round" opacity="0.7"/>
<path d="M580 550C600 594 688 510 702 604" fill="none" stroke="#E6D5B8" stroke-width="3" stroke-linecap="round" stroke-linejoin="round" opacity="0.7"/>
<path d="M678 633C688 676 788 590 791 690" fill="none" stroke="#E6D5B8" stroke-width="3" stroke-linecap="round" stroke-linejoin="round" opacity="0.7"/>
<text x="748" y="955" text-anchor="end" fill="#E6D5B8" opacity="0.32" font-family="sans-serif" font-size="12" letter-spacing="4">SYNTHETIC</text>
</svg>
