<svg xmlns="http://www.w3.org/2000/svg" viewBox="0 0 800 1000" data-record-id="synthetic-track-02-032" data-record-index="205" data-seed="6010">
<title>사잇결의 겹 — 빛을 통과한 가장자리 · Between-Grain Overlap / Edge Crossed by Light</title>
<rect x="0" y="0" width="800" height="1000" fill="#1F2933"/>
<ellipse cx="155" cy="760" rx="220" ry="112" fill="#7B8794" stroke="#F0EBD8" stroke-width="4" opacity="0.37" transform="rotate(-8 155 760)"/>
<ellipse cx="400" cy="700" rx="280" ry="155" fill="#9FB3C8" stroke="#C98276" stroke-width="4" opacity="0.34" transform="rotate(6 400 700)"/>
<ellipse cx="670" cy="815" rx="188" ry="96" fill="#7B8794" stroke="#F0EBD8" stroke-width="4" opacity="0.38" transform="rotate(-14 670 815)"/>
<ellipse cx="160" cy="680" rx="100" ry="48" fill="#F0EBD8" stroke="#C98276" stroke-width="3" opacity="0.4" transform="rotate(-14 160 680)"/>
<ellipse cx="270" cy="645" rx="100" ry="48" fill="#C98276" stroke="#C98276" stroke-width="3" opacity="0.4" transform="rotate(-6 270 645)"/>
<ellipse cx="390" cy="680" rx="100" ry="48" fill="#F0EBD8" stroke="#C98276" stroke-width="3" opacity="0.4" transform="rotate(2 390 680)"/>
<ellipse cx="505" cy="645" rx="100" ry="48" fill="#C98276" stroke="#C98276" stroke-width="3" opacity="0.4" transform="rotate(10 505 645)"/>
<ellipse cx="640" cy="680" rx="100" ry="48" fill="#F0EBD8" stroke="#C98276" stroke-width="3" opacity="0.4" transform="rotate(18 640 680)"/>
<path d="M80 910C230 850 320 960 470 896C600 840 690 920 760 874" fill="none" stroke="#C98276" stroke-width="6" stroke-linecap="round" stroke-linejoin="round" opacity="0.44"/>
<text x="735" y="952" text-anchor="end" fill="#F0EBD8" opacity="0.32" font-family="sans-serif" font-size="12" letter-spacing="4">SYNTHETIC</text>
</svg>
