<svg xmlns="http://www.w3.org/2000/svg" viewBox="0 0 800 1000" role="img" aria-label="synthetic-track-01-135 synthetic geometric artwork"><title>synthetic-track-01-135</title><rect width="800" height="1000" fill="#111f11"/><circle cx="416" cy="437" r="298" fill="#23381b" opacity=".42"/><circle cx="416" cy="437" r="272" fill="none" stroke="#e07590" stroke-width="3" opacity=".4"/><g><line x1="498.1" y1="471.4" x2="619.8" y2="522.5" stroke="#e07590" stroke-width="3" opacity=".68"/><line x1="474.0" y1="507.2" x2="562.5" y2="614.3" stroke="#a142eb" stroke-width="1" opacity=".68"/><line x1="432.9" y1="517.2" x2="458.6" y2="639.6" stroke="#a142eb" stroke-width="3" opacity=".68"/><line x1="389.0" y1="532.2" x2="364.5" y2="618.8" stroke="#e07590" stroke-width="1" opacity=".68"/><line x1="355.4" y1="500.8" x2="265.9" y2="595.1" stroke="#a142eb" stroke-width="3" opacity=".68"/><line x1="331.7" y1="465.7" x2="223.8" y2="502.4" stroke="#a142eb" stroke-width="1" opacity=".68"/><line x1="336.0" y1="424.5" x2="205.6" y2="404.0" stroke="#e07590" stroke-width="1" opacity=".68"/><line x1="345.3" y1="384.5" x2="260.2" y2="321.3" stroke="#a142eb" stroke-width="3" opacity=".68"/><line x1="373.9" y1="349.6" x2="329.2" y2="256.8" stroke="#a142eb" stroke-width="1" opacity=".68"/><line x1="419.2" y1="343.1" x2="422.7" y2="242.1" stroke="#e07590" stroke-width="3" opacity=".68"/><line x1="458.6" y1="362.3" x2="525.4" y2="245.0" stroke="#a142eb" stroke-width="2" opacity=".68"/><line x1="488.4" y1="390.6" x2="581.9" y2="330.8" stroke="#a142eb" stroke-width="2" opacity=".68"/><line x1="511.6" y1="428.7" x2="636.2" y2="418.0" stroke="#e07590" stroke-width="2" opacity=".68"/></g><g><ellipse cx="416" cy="437" rx="229" ry="148" transform="rotate(33 416 437)" fill="none" stroke="#a142eb" stroke-width="3" opacity=".78"/><ellipse cx="416" cy="437" rx="213" ry="127" transform="rotate(51 416 437)" fill="none" stroke="#e07590" stroke-width="4" opacity=".78"/><ellipse cx="416" cy="437" rx="182" ry="103" transform="rotate(89 416 437)" fill="none" stroke="#a142eb" stroke-width="3" opacity=".78"/><ellipse cx="416" cy="437" rx="166" ry="96" transform="rotate(112 416 437)" fill="none" stroke="#e07590" stroke-width="2" opacity=".78"/></g><g><circle cx="416" cy="437" r="71" fill="none" stroke="#a142eb" stroke-width="5" opacity="0.75"/><circle cx="416" cy="437" r="87" fill="none" stroke="#cef5ab" stroke-width="2" opacity="0.66"/><circle cx="416" cy="437" r="103" fill="none" stroke="#a142eb" stroke-width="2" opacity="0.57"/><circle cx="416" cy="437" r="119" fill="none" stroke="#cef5ab" stroke-width="2" opacity="0.48"/><circle cx="525.9" cy="611.2" r="10" fill="#cef5ab" stroke="#a142eb" stroke-width="2" opacity=".9"/><circle cx="289.4" cy="589.2" r="5" fill="#cef5ab" stroke="#a142eb" stroke-width="2" opacity=".9"/><circle cx="226.5" cy="361.4" r="7" fill="#cef5ab" stroke="#a142eb" stroke-width="2" opacity=".9"/><circle cx="429.1" cy="237.4" r="6" fill="#cef5ab" stroke="#a142eb" stroke-width="2" opacity=".9"/><circle cx="610.8" cy="387.5" r="5" fill="#cef5ab" stroke="#a142eb" stroke-width="2" opacity=".9"/></g><text x="416" y="920" text-anchor="middle" fill="#cef5ab" opacity=".34" font-family="sans-serif" font-size="20" letter-spacing="6">SYNTHETIC</text></svg>