<svg xmlns="http://www.w3.org/2000/svg" viewBox="0 0 800 1000" role="img" aria-label="달포개 — 소리결 반복문양" data-record-id="synthetic-track-01-122" data-index="121" data-seed="5206">
<title>소리결의 반복 — 메아리 사이의 무늬 · Soundgrain Refrain / Pattern Between Echoes</title>
<rect x="0" y="0" width="800" height="1000" fill="#3B1F2B"/>
<line x1="206" y1="624" x2="354.2" y2="177.98" stroke="#F1DABF" stroke-width="3"/>
<line x1="206" y1="624" x2="455.97" y2="225.99" stroke="#A65D75" stroke-width="3"/>
<line x1="206" y1="624" x2="543.42" y2="296.82" stroke="#A65D75" stroke-width="3"/>
<line x1="206" y1="624" x2="611.52" y2="386.4" stroke="#F1DABF" stroke-width="3"/>
<line x1="206" y1="624" x2="656.37" y2="489.6" stroke="#A65D75" stroke-width="3"/>
<line x1="206" y1="624" x2="675.41" y2="600.51" stroke="#A65D75" stroke-width="3"/>
<line x1="206" y1="624" x2="667.54" y2="712.76" stroke="#F1DABF" stroke-width="3"/>
<line x1="206" y1="624" x2="633.21" y2="819.93" stroke="#A65D75" stroke-width="3"/>
<line x1="206" y1="624" x2="574.4" y2="915.86" stroke="#A65D75" stroke-width="3"/>
<line x1="206" y1="624" x2="494.46" y2="995.07" stroke="#F1DABF" stroke-width="3"/>
<line x1="206" y1="624" x2="397.99" y2="1053" stroke="#A65D75" stroke-width="3"/>
<circle cx="291" cy="573" r="12" fill="#637A7A"/>
<circle cx="343" cy="542" r="17" fill="#D8A48F"/>
<circle cx="395" cy="511" r="12" fill="#637A7A"/>
<circle cx="447" cy="480" r="17" fill="#D8A48F"/>
<circle cx="499" cy="449" r="12" fill="#637A7A"/>
<circle cx="551" cy="418" r="17" fill="#D8A48F"/>
<circle cx="603" cy="387" r="12" fill="#637A7A"/>
<circle cx="206" cy="624" r="88" fill="none" stroke="#F1DABF" stroke-width="5"/>
<circle cx="206" cy="624" r="28" fill="#6C3A5B"/>
<polygon points="594,191 649,132 702,191" fill="#F1DABF"/>
<text x="34" y="968" fill="#F1DABF" font-family="sans-serif" font-size="11" letter-spacing="3">SYNTHETIC</text>
</svg>
